<?xml version="1.0" encoding="UTF-8" standalone="no"?>
<!DOCTYPE svg PUBLIC "-//W3C//DTD SVG 1.1//EN" "http://www.w3.org/Graphics/SVG/1.1/DTD/svg11.dtd">
<svg width="100%" height="100%" viewBox="0 0 129 32" version="1.1" xmlns="http://www.w3.org/2000/svg" xmlns:xlink="http://www.w3.org/1999/xlink" xml:space="preserve" xmlns:serif="http://www.serif.com/" style="fill-rule:evenodd;clip-rule:evenodd;stroke-linejoin:round;stroke-miterlimit:2;">
    <g>
        <g transform="matrix(0.792154,0,0,1,0,0)">
            <path d="M162,4C162,1.792 159.737,0 156.95,0L5.05,0C2.263,0 0,1.792 0,4L0,28C0,30.208 2.263,32 5.05,32L156.95,32C159.737,32 162,30.208 162,28L162,4Z" style="fill:white;"/>
        </g>
        <rect x="32" y="0" width="1" height="32" style="fill:rgb(183,187,189);fill-rule:nonzero;"/>
        <path d="M49.102,16.151C49.102,13.314 47.403,11.594 45.107,11.594C42.802,11.594 41.108,13.314 41.108,16.151C41.108,18.985 42.802,20.709 45.108,20.709C47.403,20.709 49.102,18.989 49.102,16.151ZM47.776,16.151C47.776,18.313 46.632,19.488 45.107,19.488C43.577,19.488 42.438,18.313 42.438,16.151C42.438,13.99 43.578,12.816 45.108,12.816C46.632,12.816 47.776,13.99 47.776,16.151ZM50.91,23.083L52.206,23.083L52.206,19.553L52.284,19.553C52.518,19.977 52.994,20.718 54.208,20.718C55.819,20.718 56.988,19.427 56.988,17.274C56.988,15.116 55.802,13.847 54.195,13.847C52.96,13.847 52.514,14.601 52.284,15.012L52.176,15.012L52.176,13.933L50.91,13.933L50.91,23.083ZM52.18,17.261C52.18,15.87 52.786,14.947 53.917,14.947C55.091,14.947 55.681,15.939 55.681,17.261C55.681,18.595 55.074,19.613 53.917,19.613C52.804,19.613 52.18,18.66 52.18,17.261ZM61.552,20.722C63.004,20.722 64.031,20.007 64.325,18.924L63.099,18.704C62.865,19.331 62.302,19.652 61.565,19.652C60.456,19.652 59.711,18.932 59.676,17.65L64.407,17.65L64.407,17.191C64.407,14.787 62.969,13.847 61.461,13.847C59.607,13.847 58.385,15.259 58.385,17.304C58.385,19.371 59.59,20.722 61.552,20.722ZM59.681,16.68C59.733,15.736 60.417,14.917 61.47,14.917C62.475,14.917 63.134,15.662 63.138,16.68L59.681,16.68ZM67.384,16.637C67.384,15.575 68.034,14.969 68.935,14.969C69.815,14.969 70.347,15.545 70.347,16.511L70.347,20.588L71.643,20.588L71.643,16.355C71.643,14.709 70.737,13.847 69.377,13.847C68.377,13.847 67.722,14.31 67.414,15.017L67.332,15.017L67.332,13.933L66.089,13.933L66.089,20.588L67.384,20.588L67.384,16.637ZM77.097,20.587L78.392,20.587L78.392,13.933L77.097,13.933L77.097,20.588L77.097,20.587ZM77.751,12.907C78.197,12.907 78.57,12.56 78.57,12.135C78.57,11.711 78.197,11.36 77.751,11.36C77.301,11.36 76.932,11.71 76.932,12.135C76.932,12.56 77.3,12.907 77.751,12.907ZM81.674,16.637C81.674,15.575 82.324,14.969 83.225,14.969C84.105,14.969 84.638,15.545 84.638,16.511L84.638,20.588L85.933,20.588L85.933,16.355C85.933,14.709 85.027,13.847 83.667,13.847C82.667,13.847 82.012,14.31 81.705,15.017L81.622,15.017L81.622,13.933L80.38,13.933L80.38,20.588L81.675,20.588L81.675,16.637L81.674,16.637Z" style="fill-rule:nonzero;"/>
        <g transform="matrix(0.328473,0,0,0.328473,6.99686,11.1831)">
            <g transform="matrix(1,0,0,1,180.237,-25.4849)">
                <path d="M75.94,54L75.94,30L85.41,30C90.85,30 94.01,33.36 94.01,38.13C94.01,42.93 90.8,46.22 85.28,46.22L81,46.22L81,54L75.93,54L75.94,54ZM81,42.15L84.45,42.15C87.35,42.15 88.77,40.51 88.77,38.13C88.77,35.74 87.35,34.15 84.42,34.15L81,34.15L81,42.15ZM100.48,54.34C97.05,54.34 94.5,52.54 94.5,48.97C94.5,44.95 97.7,43.76 101.27,43.43C104.39,43.13 105.62,42.97 105.62,41.81L105.62,41.74C105.62,40.27 104.65,39.41 102.95,39.41C101.16,39.41 100.09,40.29 99.75,41.48L95.14,41.11C95.83,37.83 98.66,35.77 102.98,35.77C106.98,35.77 110.62,37.57 110.62,41.86L110.62,54L105.88,54L105.88,51.5L105.74,51.5C104.86,53.18 103.14,54.34 100.48,54.34ZM101.91,50.89C104.11,50.89 105.66,49.45 105.66,47.57L105.66,45.66C105.06,46.06 103.28,46.31 102.19,46.46C100.43,46.71 99.27,47.4 99.27,48.81C99.27,50.18 100.37,50.89 101.91,50.89ZM121.23,61.12C116.37,61.12 113.6,58.95 113,56.11L117.62,55.49C118.02,56.58 119.14,57.54 121.34,57.54C123.51,57.54 125.09,56.58 125.09,54.11L125.09,50.81L124.89,50.81C124.23,52.31 122.62,53.74 119.75,53.74C115.69,53.74 112.45,50.95 112.45,44.96C112.45,38.84 115.79,35.76 119.74,35.76C122.74,35.76 124.21,37.56 124.88,39.02L125.07,39.02L125.07,36L130.03,36L130.03,54.18C130.03,58.78 126.37,61.12 121.23,61.12ZM121.33,49.99C123.73,49.99 125.12,48.12 125.12,44.94C125.12,41.79 123.76,39.74 121.33,39.74C118.86,39.74 117.55,41.88 117.55,44.94C117.55,48.04 118.88,49.99 121.33,49.99ZM140.83,54.35C135.29,54.35 131.9,50.79 131.9,45.08C131.9,39.53 135.34,35.77 140.63,35.77C145.39,35.77 149.09,38.79 149.09,44.91L149.09,46.28L136.84,46.28C136.84,48.98 138.42,50.63 140.92,50.63C142.58,50.63 143.87,49.91 144.37,48.53L148.99,48.84C148.29,52.18 145.29,54.35 140.83,54.35ZM136.83,43.18L144.4,43.18C144.402,43.133 144.403,43.085 144.403,43.038C144.403,41.09 142.8,39.488 140.853,39.488C140.809,39.488 140.764,39.488 140.72,39.49C138.643,39.446 136.894,41.113 136.84,43.19L136.83,43.18ZM165.95,41.13L161.38,41.41C161.13,40.25 160.1,39.31 158.37,39.31C156.82,39.31 155.6,40.01 155.61,41.09C155.61,41.95 156.22,42.53 157.9,42.89L161.16,43.55C164.65,44.26 166.35,45.82 166.36,48.42C166.35,51.97 163.01,54.35 158.34,54.35C153.57,54.35 150.64,52.23 150.18,48.79L155.08,48.53C155.39,49.99 156.58,50.75 158.36,50.75C160.1,50.75 161.26,49.99 161.28,48.93C161.26,48.03 160.55,47.45 158.98,47.13L155.86,46.51C152.34,45.81 150.64,44.06 150.66,41.37C150.64,37.9 153.68,35.77 158.28,35.77C162.83,35.77 165.5,37.82 165.95,41.13Z" style="fill-rule:nonzero;"/>
            </g>
            <g>
                <g transform="matrix(1,0,0,1,-8.51553,-19.3205)">
                    <path d="M45.94,10L60,10L62,12L62,56L60,58L40.84,58L41.81,56.5L59.38,56.5L60.5,55.38L60.5,12.62L59.38,11.5L47.26,11.5L45.83,18.89L44.3,18.89L45.67,11.43L45.95,10L45.94,10ZM12,58L10,56L10,12L12,10L31.9,10L30.89,11.5L12.62,11.5L11.5,12.62L11.5,55.38L12.62,56.5L27.1,56.5L26.86,58L12,58ZM15,53L23.5,53L23.2,54.5L14,54.5L13.5,54L13.5,45L15,48L15,53ZM49,53L50.5,54.5L43,54.5L44,53L49,53Z" style="fill:rgb(183,187,189);fill-rule:nonzero;"/>
                </g>
                <g transform="matrix(1,0,0,1,-8.51553,-19.3205)">
                    <path d="M32.67,40L19,40L17.34,36.88L40.34,2.88L43.96,4.38L39.42,28L53,28L54.68,31.09L32.68,65.09L29.02,63.69L32.67,40ZM15.5,17C14.677,17 14,16.323 14,15.5C14,14.677 14.677,14 15.5,14C16.323,14 17,14.677 17,15.5C17,16.323 16.323,17 15.5,17ZM19.5,17C18.677,17 18,16.323 18,15.5C18,14.677 18.677,14 19.5,14C20.323,14 21,14.677 21,15.5C21,16.323 20.323,17 19.5,17ZM23.5,17C22.677,17 22,16.323 22,15.5C22,14.677 22.677,14 23.5,14C24.323,14 25,14.677 25,15.5C25,16.323 24.323,17 23.5,17Z" style="fill:url(#_Linear1);fill-rule:nonzero;"/>
                </g>
            </g>
        </g>
        <g transform="matrix(0.328473,0,0,0.328473,66.1997,3.38918)">
            <path d="M84.14,17.86L82.12,17.86C81.97,16.82 81.18,16.18 80.09,16.18C78.62,16.18 77.66,17.31 77.66,19.28C77.66,21.29 78.64,22.36 80.07,22.36C81.14,22.36 81.93,21.78 82.12,20.76L84.14,20.78C83.93,22.52 82.46,24.13 80.04,24.13C77.51,24.13 75.64,22.36 75.64,19.27C75.64,16.18 77.54,14.42 80.04,14.42C82.23,14.42 83.88,15.67 84.14,17.86ZM86.97,14.55L86.97,24L85,24L85,14.55L86.97,14.55ZM91.2,24.14C89.04,24.14 87.7,22.67 87.7,20.48C87.7,18.28 89.04,16.82 91.2,16.82C93.35,16.82 94.69,18.28 94.69,20.48C94.69,22.67 93.35,24.14 91.19,24.14L91.2,24.14ZM91.2,22.62C92.18,22.62 92.69,21.71 92.69,20.47C92.69,19.23 92.18,18.32 91.2,18.32C90.21,18.32 89.7,19.23 89.7,20.47C89.7,21.71 90.21,22.62 91.2,22.62ZM99.97,20.98L99.97,16.91L101.94,16.91L101.94,24L100.05,24L100.05,22.71L99.98,22.71C99.66,23.54 98.89,24.09 97.83,24.09C96.4,24.09 95.43,23.09 95.43,21.42L95.43,16.91L97.39,16.91L97.39,21.07C97.39,21.91 97.88,22.43 98.62,22.43C99.32,22.43 99.98,21.93 99.97,20.98ZM105.57,24.12C103.97,24.12 102.7,22.84 102.7,20.46C102.7,18.03 104.02,16.82 105.57,16.82C106.76,16.82 107.33,17.52 107.59,18.1L107.65,18.1L107.65,14.55L109.61,14.55L109.61,24L107.67,24L107.67,22.86L107.59,22.86C107.245,23.653 106.444,24.155 105.58,24.12L105.57,24.12ZM106.2,22.55C107.15,22.55 107.7,21.72 107.7,20.45C107.7,19.19 107.16,18.38 106.2,18.38C105.23,18.38 104.71,19.23 104.71,20.45C104.71,21.69 105.24,22.55 106.21,22.55L106.2,22.55ZM114.5,16.91L114.5,18.39L113.08,18.39L113.08,24L111.12,24L111.12,18.39L110.12,18.39L110.12,16.9L111.12,16.9L111.12,16.39C111.12,14.84 112.12,14.09 113.44,14.09C114.05,14.09 114.59,14.21 114.84,14.29L114.49,15.76C114.33,15.71 114.09,15.66 113.86,15.66C113.28,15.66 113.08,15.94 113.08,16.42L113.08,16.9L114.49,16.9L114.5,16.91ZM117.12,14.55L117.12,24L115.15,24L115.15,14.55L117.12,14.55ZM120.16,24.13C118.81,24.13 117.81,23.43 117.81,22.02C117.81,20.44 119.07,19.97 120.47,19.84C121.71,19.72 122.19,19.66 122.19,19.2L122.19,19.17C122.19,18.59 121.81,18.25 121.14,18.25C120.44,18.25 120.01,18.6 119.88,19.07L118.06,18.92C118.33,17.62 119.45,16.82 121.15,16.82C122.73,16.82 124.15,17.52 124.15,19.22L124.15,24L122.29,24L122.29,23.02L122.24,23.02C121.89,23.68 121.21,24.13 120.16,24.13ZM120.73,22.78C121.59,22.78 122.2,22.21 122.2,21.47L122.2,20.71C121.97,20.87 121.27,20.97 120.84,21.03C120.14,21.13 119.69,21.4 119.69,21.95C119.69,22.5 120.12,22.78 120.73,22.78ZM125.14,24L125.14,16.9L127.04,16.9L127.04,18.15L127.12,18.15C127.38,17.27 128.03,16.81 128.82,16.81C129.02,16.81 129.27,16.84 129.44,16.88L129.44,18.62C129.169,18.552 128.89,18.518 128.61,18.52C127.75,18.52 127.11,19.12 127.11,19.99L127.11,24L125.14,24ZM132.81,24.14C130.63,24.14 129.29,22.74 129.29,20.49C129.29,18.29 130.65,16.82 132.73,16.82C134.61,16.82 136.07,18.01 136.07,20.42L136.07,20.96L131.24,20.96C131.24,22.02 131.86,22.67 132.84,22.67C133.5,22.67 134.01,22.39 134.2,21.85L136.02,21.97C135.75,23.28 134.56,24.14 132.82,24.14L132.81,24.14ZM131.24,19.74L134.21,19.74C134.21,18.89 133.61,18.28 132.76,18.28C131.945,18.269 131.262,18.925 131.24,19.74Z" style="fill-rule:nonzero;"/>
        </g>
    </g>
    <defs>
        <linearGradient id="_Linear1" x1="0" y1="0" x2="1" y2="0" gradientUnits="userSpaceOnUse" gradientTransform="matrix(-43.6822,64.7046,-64.7046,-43.6822,62.0756,1.39318)"><stop offset="0" style="stop-color:rgb(251,183,67);stop-opacity:1"/><stop offset="1" style="stop-color:rgb(242,131,51);stop-opacity:1"/><stop offset="1" style="stop-color:rgb(234,107,0);stop-opacity:1"/></linearGradient>
    </defs>
</svg>
